<!DOCTYPE svg PUBLIC "-//W3C//DTD SVG 20010904//EN" "http://www.w3.org/TR/2001/REC-SVG-20010904/DTD/svg10.dtd">
<svg version="1.0" xmlns="http://www.w3.org/2000/svg" width="34px" height="34px" viewBox="0 0 340 340" preserveAspectRatio="xMidYMid meet">
<g id="layer101" fill="#e0e0e0" stroke="none">
 <path d="M70 270 c-17 -17 -20 -33 -20 -100 0 -109 11 -120 120 -120 109 0 120 11 120 120 0 67 -3 83 -20 100 -17 17 -33 20 -100 20 -67 0 -83 -3 -100 -20z m185 -100 l0 -85 -73 -3 c-46 -2 -79 2 -88 9 -15 12 -21 149 -7 163 4 4 43 5 88 4 l80 -3 0 -85z"/>
 <path d="M127 212 c-22 -24 -21 -65 1 -85 40 -36 102 -9 102 45 0 51 -69 78 -103 40z m68 -42 c0 -18 -6 -26 -23 -28 -13 -2 -25 3 -28 12 -10 26 4 48 28 44 17 -2 23 -10 23 -28z"/>
 <path d="M220 104 c0 -9 5 -14 12 -12 18 6 21 28 4 28 -9 0 -16 -7 -16 -16z"/>
 </g>

</svg>