<!DOCTYPE svg PUBLIC "-//W3C//DTD SVG 20010904//EN" "http://www.w3.org/TR/2001/REC-SVG-20010904/DTD/svg10.dtd">
<svg version="1.0" xmlns="http://www.w3.org/2000/svg" width="34px" height="34px" viewBox="0 0 340 340" preserveAspectRatio="xMidYMid meet">
<g id="layer101" fill="#fcfcfc" stroke="none">
 <path d="M140 225 c0 -30 -4 -55 -10 -55 -5 0 -10 -9 -10 -20 0 -11 5 -20 10 -20 6 0 10 -10 10 -23 0 -31 18 -47 52 -47 33 0 38 25 7 33 -26 7 -22 44 4 39 11 -2 17 4 17 18 0 14 -7 20 -21 20 -19 0 -21 5 -17 55 3 51 2 55 -19 55 -21 0 -23 -5 -23 -55z"/>
 </g>

</svg>