<!DOCTYPE svg PUBLIC "-//W3C//DTD SVG 20010904//EN" "http://www.w3.org/TR/2001/REC-SVG-20010904/DTD/svg10.dtd">
<svg version="1.0" xmlns="http://www.w3.org/2000/svg" width="34px" height="34px" viewBox="0 0 340 340" preserveAspectRatio="xMidYMid meet">
<g id="layer101" fill="#ededed" stroke="none">
 <path d="M129 225 c-14 -7 -37 -36 -53 -64 l-27 -51 23 0 c12 0 33 12 46 28 l23 27 -5 -32 c-5 -31 -4 -33 24 -33 27 0 30 3 30 30 0 36 16 39 32 5 8 -18 19 -25 40 -25 33 0 34 3 7 41 l-20 29 20 22 c12 12 21 25 21 30 0 14 -57 9 -70 -7 -7 -8 -16 -15 -21 -15 -5 0 -9 7 -9 15 0 19 -27 19 -61 0z"/>
 </g>

</svg>