<!DOCTYPE svg PUBLIC "-//W3C//DTD SVG 20010904//EN" "http://www.w3.org/TR/2001/REC-SVG-20010904/DTD/svg10.dtd">
<svg version="1.0" xmlns="http://www.w3.org/2000/svg" width="34px" height="34px" viewBox="0 0 340 340" preserveAspectRatio="xMidYMid meet">
<g id="layer101" fill="#e0e0e0" stroke="none">
 <path d="M116 278 c-4 -9 -3 -33 3 -55 6 -21 11 -52 11 -69 0 -34 22 -60 40 -49 7 4 9 21 5 45 -11 68 37 62 51 -6 7 -38 -15 -64 -55 -64 -41 0 -65 31 -57 75 7 36 -1 44 -22 23 -24 -24 -14 -74 19 -102 64 -54 149 -19 149 62 0 49 -29 82 -73 82 -27 0 -34 5 -48 38 -13 29 -18 33 -23 20z"/>
 </g>

</svg>